<svg width="380" height="506" viewBox="0 0 380 506" fill="none" xmlns="http://www.w3.org/2000/svg">
<rect x="1" y="1" width="378" height="504" rx="24" fill="url(#paint0_linear_43_1505)" stroke="#FF9B5F" stroke-width="2"/>
<mask id="mask0_43_1505" style="mask-type:alpha" maskUnits="userSpaceOnUse" x="0" y="0" width="380" height="506">
<rect x="1" y="1" width="378" height="504" rx="24" fill="url(#paint1_linear_43_1505)" stroke="#FF9B5F" stroke-width="2"/>
</mask>
<g mask="url(#mask0_43_1505)">
<path d="M27.25 27.25H91.75V91.75H27.25V27.25ZM287.25 27.25H351.75V91.75H287.25V27.25ZM287.25 92.25H351.75V156.75H287.25V92.25ZM287.25 157.25H351.75V221.75H287.25V157.25ZM287.25 222.25H351.75V286.75H287.25V222.25ZM287.25 287.25H351.75V351.75H287.25V287.25ZM287.25 352.25H351.75V416.75H287.25V352.25ZM287.25 417.25H351.75V481.75H287.25V417.25ZM286.75 417.25V481.75H222.25V417.25H286.75ZM221.75 417.25V481.75H157.25V417.25H221.75ZM156.75 417.25V481.75H92.25V417.25H156.75ZM91.75 417.25V481.75H27.25V417.25H91.75ZM91.75 416.75H27.25V352.25H91.75V416.75ZM91.75 351.75H27.25V287.25H91.75V351.75ZM91.75 286.75H27.25V222.25H91.75V286.75ZM91.75 221.75H27.25V157.25H91.75V221.75ZM91.75 156.75H27.25V92.25H91.75V156.75ZM92.25 156.75V92.25H156.75V156.75H92.25ZM157.25 156.75V92.25H221.75V156.75H157.25ZM222.25 156.75V92.25H286.75V156.75H222.25ZM286.75 27.25V91.75H222.25V27.25H286.75ZM157.25 27.25H221.75V91.75H157.25V27.25ZM92.25 27.25H156.75V91.75H92.25V27.25ZM222.25 157.25H286.75V221.75H222.25V157.25ZM222.25 222.25H286.75V286.75H222.25V222.25ZM222.25 287.25H286.75V351.75H222.25V287.25ZM222.25 352.25H286.75V416.75H222.25V352.25ZM221.75 352.25V416.75H157.25V352.25H221.75ZM156.75 352.25V416.75H92.25V352.25H156.75ZM156.75 351.75H92.25V287.25H156.75V351.75ZM156.75 286.75H92.25V222.25H156.75V286.75ZM156.75 221.75H92.25V157.25H156.75V221.75ZM157.25 221.75V157.25H221.75V221.75H157.25ZM157.25 222.25H221.75V286.75H157.25V222.25ZM157.25 287.25H221.75V351.75H157.25V287.25Z" stroke="url(#paint2_radial_43_1505)" stroke-width="0.5"/>
<path d="M217.526 348.246C211.259 336.911 201.963 324.776 190.097 310.731C202.573 324.237 213.472 334.956 223.949 342.57C232.414 348.722 240.615 352.855 249.162 354.795C257.712 356.734 266.594 356.475 276.417 353.862C296.049 348.638 319.451 334.006 351.503 308.707C368.183 295.542 387.214 279.48 409.284 260.341C387.573 279.887 369.291 296.795 354.172 311.728C325.12 340.421 307.717 361.844 300.117 380.683C296.314 390.109 294.963 398.892 295.836 407.616C296.708 416.337 299.8 424.985 304.863 434.142C311.129 445.478 320.425 457.613 332.292 471.657C319.815 458.152 308.917 447.432 298.44 439.818C289.975 433.667 281.774 429.533 273.226 427.594C264.677 425.654 255.794 425.913 245.971 428.527C226.34 433.75 202.937 448.382 170.885 473.681C154.205 486.847 135.174 502.908 113.104 522.048C134.815 502.502 153.097 485.593 168.217 470.661C197.269 441.967 214.671 420.545 222.272 401.705C226.074 392.279 227.425 383.496 226.553 374.772C225.681 366.051 222.588 357.404 217.526 348.246Z" fill="url(#paint3_linear_43_1505)" fill-opacity="0.2" stroke="white" stroke-width="0.5"/>
</g>
<defs>
<linearGradient id="paint0_linear_43_1505" x1="10.5" y1="13.5" x2="364" y2="491" gradientUnits="userSpaceOnUse">
<stop stop-color="#FC7001"/>
<stop offset="1" stop-color="#FFA36B"/>
</linearGradient>
<linearGradient id="paint1_linear_43_1505" x1="10.5" y1="13.5" x2="364" y2="491" gradientUnits="userSpaceOnUse">
<stop stop-color="#FC7001"/>
<stop offset="1" stop-color="#FFA36B"/>
</linearGradient>
<radialGradient id="paint2_radial_43_1505" cx="0" cy="0" r="1" gradientUnits="userSpaceOnUse" gradientTransform="translate(189.5 152) rotate(90) scale(330 235.714)">
<stop stop-color="white"/>
<stop offset="1" stop-color="#999999" stop-opacity="0"/>
</radialGradient>
<linearGradient id="paint3_linear_43_1505" x1="243.979" y1="338.5" x2="243.979" y2="435" gradientUnits="userSpaceOnUse">
<stop stop-color="white"/>
<stop offset="1" stop-color="#FC7001"/>
</linearGradient>
</defs>
</svg>
