<svg width="380" height="506" viewBox="0 0 380 506" fill="none" xmlns="http://www.w3.org/2000/svg">
<rect x="1" y="1" width="378" height="504" rx="24" fill="url(#paint0_linear_43_1464)" stroke="#FF9B5F" stroke-width="2"/>
<mask id="mask0_43_1464" style="mask-type:alpha" maskUnits="userSpaceOnUse" x="0" y="0" width="380" height="506">
<rect x="1" y="1" width="378" height="504" rx="24" fill="url(#paint1_linear_43_1464)" stroke="#FF9B5F" stroke-width="2"/>
</mask>
<g mask="url(#mask0_43_1464)">
<rect width="80" height="80" transform="matrix(0.866025 0.5 -0.866025 0.5 310.282 427)" fill="#FC7205" stroke="white" stroke-width="0.2"/>
<rect width="80" height="40" transform="matrix(0.866025 0.5 0 1 241 467)" fill="#FF7D2F" stroke="white" stroke-width="0.2"/>
<rect width="80" height="40" transform="matrix(0.866025 -0.5 0 1 310.282 507)" fill="#FF9B5F" stroke="white" stroke-width="0.2"/>
<rect width="80" height="80" transform="matrix(0.866025 0.5 -0.866025 0.5 171.282 427)" fill="#FC7205" stroke="white" stroke-width="0.2"/>
<rect width="80" height="40" transform="matrix(0.866025 0.5 0 1 102 467)" fill="#FF7D2F" stroke="white" stroke-width="0.2"/>
<rect width="80" height="40" transform="matrix(0.866025 -0.5 0 1 171.282 507)" fill="#FF9B5F" stroke="white" stroke-width="0.2"/>
<rect width="80" height="80" transform="matrix(0.866025 0.5 -0.866025 0.5 240.282 349)" fill="#FC7205" stroke="white" stroke-width="0.2"/>
<rect width="80" height="40" transform="matrix(0.866025 0.5 0 1 171 389)" fill="#FF7D2F" stroke="white" stroke-width="0.2"/>
<rect width="80" height="40" transform="matrix(0.866025 -0.5 0 1 240.282 429)" fill="#FF9B5F" stroke="white" stroke-width="0.2"/>
<rect width="80" height="80" transform="matrix(0.866025 0.5 -0.866025 0.5 379.282 349)" fill="#FC7205" stroke="white" stroke-width="0.2"/>
<rect width="80" height="40" transform="matrix(0.866025 0.5 0 1 311 389)" fill="#FF7D2F" stroke="white" stroke-width="0.2"/>
<rect width="80" height="40" transform="matrix(0.866025 -0.5 0 1 379.282 429)" fill="#FF9B5F" stroke="white" stroke-width="0.2"/>
<rect width="80" height="80" transform="matrix(0.866025 0.5 -0.866025 0.5 311.282 270)" fill="#FC7205" stroke="white" stroke-width="0.2"/>
<rect width="80" height="40" transform="matrix(0.866025 0.5 0 1 242 310)" fill="#FF7D2F" stroke="white" stroke-width="0.2"/>
<rect width="80" height="40" transform="matrix(0.866025 -0.5 0 1 311.282 350)" fill="#FF9B5F" stroke="white" stroke-width="0.2"/>
<path d="M91.75 27.25V91.75H27.25V27.25H91.75ZM27.25 92.25H91.75V156.75H27.25V92.25ZM92.25 156.75V92.25H156.75V156.75H92.25ZM27.25 157.25H91.75V221.75H27.25V157.25ZM92.25 221.75V157.25H156.75V221.75H92.25ZM27.25 222.25H91.75V286.75H27.25V222.25ZM92.25 286.75V222.25H156.75V286.75H92.25ZM27.25 287.25H91.75V351.75H27.25V287.25ZM92.25 351.75V287.25H156.75V351.75H92.25ZM27.25 352.25H91.75V416.75H27.25V352.25ZM92.25 416.75V352.25H156.75V416.75H92.25ZM27.25 417.25H91.75V481.75H27.25V417.25ZM92.25 481.75V417.25H156.75V481.75H92.25ZM92.25 91.75V27.25H156.75V91.75H92.25ZM157.25 91.75V27.25H221.75V91.75H157.25ZM222.25 91.75V27.25H286.75V91.75H222.25ZM287.25 91.75V27.25H351.75V91.75H287.25ZM287.25 92.25H351.75V156.75H287.25V92.25ZM287.25 157.25H351.75V221.75H287.25V157.25ZM287.25 222.25H351.75V286.75H287.25V222.25ZM287.25 287.25H351.75V351.75H287.25V287.25ZM287.25 352.25H351.75V416.75H287.25V352.25ZM287.25 417.25H351.75V481.75H287.25V417.25ZM286.75 417.25V481.75H222.25V417.25H286.75ZM221.75 417.25V481.75H157.25V417.25H221.75ZM221.75 416.75H157.25V352.25H221.75V416.75ZM221.75 351.75H157.25V287.25H221.75V351.75ZM221.75 286.75H157.25V222.25H221.75V286.75ZM221.75 221.75H157.25V157.25H221.75V221.75ZM221.75 156.75H157.25V92.25H221.75V156.75ZM222.25 156.75V92.25H286.75V156.75H222.25ZM222.25 157.25H286.75V221.75H222.25V157.25ZM222.25 222.25H286.75V286.75H222.25V222.25ZM222.25 287.25H286.75V351.75H222.25V287.25ZM222.25 352.25H286.75V416.75H222.25V352.25Z" stroke="url(#paint2_radial_43_1464)" stroke-width="0.5"/>
</g>
<defs>
<linearGradient id="paint0_linear_43_1464" x1="10.5" y1="13.5" x2="364" y2="491" gradientUnits="userSpaceOnUse">
<stop stop-color="#FC7001"/>
<stop offset="1" stop-color="#FFBA8E"/>
</linearGradient>
<linearGradient id="paint1_linear_43_1464" x1="10.5" y1="13.5" x2="364" y2="491" gradientUnits="userSpaceOnUse">
<stop stop-color="#FC7001"/>
<stop offset="1" stop-color="#FFBA8E"/>
</linearGradient>
<radialGradient id="paint2_radial_43_1464" cx="0" cy="0" r="1" gradientUnits="userSpaceOnUse" gradientTransform="translate(189.5 152) rotate(90) scale(330 235.714)">
<stop stop-color="white"/>
<stop offset="1" stop-color="#999999" stop-opacity="0"/>
</radialGradient>
</defs>
</svg>
