<svg width="597" height="300" viewBox="0 0 597 300" fill="none" xmlns="http://www.w3.org/2000/svg">
<rect width="597" height="300" rx="25" fill="url(#paint0_linear_43_1523)"/>
<path d="M477.799 14.2005V65.9423H426.058V14.2005H477.799ZM477.799 222.772V274.514H426.058V222.772H477.799ZM425.657 222.772V274.514H373.915V222.772H425.657ZM373.514 222.772V274.514H321.772V222.772H373.514ZM321.371 222.772V274.514H269.629V222.772H321.371ZM269.228 222.772V274.514H217.486V222.772H269.228ZM217.085 222.772V274.514H165.343V222.772H217.085ZM164.942 222.772V274.514H113.201V222.772H164.942ZM164.942 222.371H113.201V170.629H164.942V222.371ZM164.942 170.228H113.201V118.486H164.942V170.228ZM164.942 118.085H113.201V66.3434H164.942V118.085ZM164.942 65.9423H113.201V14.2005H164.942V65.9423ZM165.343 65.9423V14.2005H217.085V65.9423H165.343ZM217.486 65.9423V14.2005H269.228V65.9423H217.486ZM269.629 65.9423V14.2005H321.371V65.9423H269.629ZM321.772 65.9423V14.2005H373.514V65.9423H321.772ZM373.915 65.9423V14.2005H425.657V65.9423H373.915ZM373.915 66.3434H425.657V118.085H373.915V66.3434ZM373.915 118.486H425.657V170.228H373.915V118.486ZM373.915 170.629H425.657V222.371H373.915V170.629ZM477.799 222.371H426.058V170.629H477.799V222.371ZM477.799 118.486V170.228H426.058V118.486H477.799ZM477.799 66.3434V118.085H426.058V66.3434H477.799ZM373.514 170.629V222.371H321.772V170.629H373.514ZM321.371 170.629V222.371H269.629V170.629H321.371ZM269.228 170.629V222.371H217.486V170.629H269.228ZM217.085 170.629V222.371H165.343V170.629H217.085ZM217.085 170.228H165.343V118.486H217.085V170.228ZM217.085 118.085H165.343V66.3434H217.085V118.085ZM217.486 118.085V66.3434H269.228V118.085H217.486ZM269.629 118.085V66.3434H321.371V118.085H269.629ZM321.772 118.085V66.3434H373.514V118.085H321.772ZM321.772 118.486H373.514V170.228H321.772V118.486ZM321.371 118.486V170.228H269.629V118.486H321.371ZM269.228 118.486V170.228H217.486V118.486H269.228Z" fill="url(#paint1_linear_43_1523)" stroke="url(#paint2_radial_43_1523)" stroke-width="0.401099"/>
<defs>
<linearGradient id="paint0_linear_43_1523" x1="16.496" y1="8.00395" x2="130.073" y2="414.534" gradientUnits="userSpaceOnUse">
<stop stop-color="white"/>
<stop offset="1" stop-color="white"/>
</linearGradient>
<linearGradient id="paint1_linear_43_1523" x1="468.262" y1="21.2039" x2="136.211" y2="279.657" gradientUnits="userSpaceOnUse">
<stop stop-color="white"/>
<stop offset="1" stop-color="white"/>
</linearGradient>
<radialGradient id="paint2_radial_43_1523" cx="0" cy="0" r="1" gradientUnits="userSpaceOnUse" gradientTransform="translate(314.352 144.758) rotate(-179.886) scale(201.352 143.823)">
<stop stop-color="#FC7001"/>
<stop offset="1" stop-color="white" stop-opacity="0"/>
</radialGradient>
</defs>
</svg>
